<mxfile host="app.diagrams.net" modified="2021-11-17T18:18:49.574Z" agent="5.0 (Windows NT 10.0; Win64; x64) AppleWebKit/537.36 (KHTML, like Gecko) Chrome/96.0.4664.45 Safari/537.36" etag="qFeOlYOxhujixnQFkeOg" version="15.8.0" type="github">
  <diagram id="C5RBs43oDa-KdzZeNtuy" name="Page-1">
    <mxGraphModel dx="2031" dy="1134" grid="1" gridSize="10" guides="1" tooltips="1" connect="1" arrows="1" fold="1" page="1" pageScale="1" pageWidth="827" pageHeight="1169" math="0" shadow="0">
      <root>
        <mxCell id="WIyWlLk6GJQsqaUBKTNV-0" />
        <mxCell id="WIyWlLk6GJQsqaUBKTNV-1" parent="WIyWlLk6GJQsqaUBKTNV-0" />
        <mxCell id="WKIlZzLHvsBtDXZ9d_bG-1" value="START&lt;br&gt;" style="rounded=1;whiteSpace=wrap;html=1;fillColor=#d5e8d4;strokeColor=#82b366;fontStyle=1;strokeWidth=1;" vertex="1" parent="WIyWlLk6GJQsqaUBKTNV-1">
          <mxGeometry x="300.5" y="50" width="65" height="30" as="geometry" />
        </mxCell>
        <mxCell id="WKIlZzLHvsBtDXZ9d_bG-5" value="" style="rounded=0;html=1;jettySize=auto;orthogonalLoop=1;fontSize=11;endArrow=block;endFill=0;endSize=8;strokeWidth=1;shadow=0;labelBackgroundColor=none;edgeStyle=orthogonalEdgeStyle;entryX=0.5;entryY=0;entryDx=0;entryDy=0;exitX=0.5;exitY=1;exitDx=0;exitDy=0;" edge="1" parent="WIyWlLk6GJQsqaUBKTNV-1" source="WKIlZzLHvsBtDXZ9d_bG-1" target="WKIlZzLHvsBtDXZ9d_bG-7">
          <mxGeometry relative="1" as="geometry">
            <mxPoint x="333.5" y="80" as="sourcePoint" />
            <mxPoint x="333.5" y="130" as="targetPoint" />
          </mxGeometry>
        </mxCell>
        <mxCell id="WKIlZzLHvsBtDXZ9d_bG-7" value="Czy naciśnięto przycisk?" style="rhombus;whiteSpace=wrap;html=1;shadow=0;fontFamily=Helvetica;fontSize=12;align=center;strokeWidth=1;spacing=6;spacingTop=-4;fontStyle=1" vertex="1" parent="WIyWlLk6GJQsqaUBKTNV-1">
          <mxGeometry x="270" y="130" width="126" height="100" as="geometry" />
        </mxCell>
        <mxCell id="WKIlZzLHvsBtDXZ9d_bG-8" value="Czy użytkownik przeszedł?" style="rhombus;whiteSpace=wrap;html=1;shadow=0;fontFamily=Helvetica;fontSize=12;align=center;strokeWidth=1;spacing=6;spacingTop=-4;fontStyle=1" vertex="1" parent="WIyWlLk6GJQsqaUBKTNV-1">
          <mxGeometry x="580" y="690" width="115" height="110" as="geometry" />
        </mxCell>
        <mxCell id="WKIlZzLHvsBtDXZ9d_bG-9" value="NIE" style="rounded=0;html=1;jettySize=auto;orthogonalLoop=1;fontSize=11;endArrow=block;endFill=0;endSize=8;strokeWidth=1;shadow=0;labelBackgroundColor=none;edgeStyle=orthogonalEdgeStyle;entryX=0.5;entryY=0;entryDx=0;entryDy=0;" edge="1" parent="WIyWlLk6GJQsqaUBKTNV-1" target="WKIlZzLHvsBtDXZ9d_bG-7">
          <mxGeometry x="-0.9433" y="-10" relative="1" as="geometry">
            <mxPoint x="270" y="180" as="sourcePoint" />
            <mxPoint x="330" y="100" as="targetPoint" />
            <Array as="points">
              <mxPoint x="220" y="180" />
              <mxPoint x="220" y="130" />
            </Array>
            <mxPoint as="offset" />
          </mxGeometry>
        </mxCell>
        <mxCell id="WKIlZzLHvsBtDXZ9d_bG-10" value="TAK" style="rounded=0;jettySize=auto;orthogonalLoop=1;fontSize=11;endArrow=block;endFill=0;endSize=8;strokeWidth=1;shadow=0;labelBackgroundColor=none;edgeStyle=orthogonalEdgeStyle;exitX=1;exitY=0.5;exitDx=0;exitDy=0;entryX=0.5;entryY=0;entryDx=0;entryDy=0;align=center;html=1;" edge="1" parent="WIyWlLk6GJQsqaUBKTNV-1" source="WKIlZzLHvsBtDXZ9d_bG-7" target="WKIlZzLHvsBtDXZ9d_bG-14">
          <mxGeometry x="-0.2889" y="10" relative="1" as="geometry">
            <mxPoint x="680" y="180" as="sourcePoint" />
            <mxPoint x="520" y="270" as="targetPoint" />
            <Array as="points">
              <mxPoint x="433" y="180" />
              <mxPoint x="433" y="210" />
            </Array>
            <mxPoint as="offset" />
          </mxGeometry>
        </mxCell>
        <mxCell id="WKIlZzLHvsBtDXZ9d_bG-14" value="Pomiar temperatury" style="rounded=1;whiteSpace=wrap;html=1;fontSize=12;glass=0;strokeWidth=1;shadow=0;" vertex="1" parent="WIyWlLk6GJQsqaUBKTNV-1">
          <mxGeometry x="372.5" y="210" width="120" height="40" as="geometry" />
        </mxCell>
        <mxCell id="WKIlZzLHvsBtDXZ9d_bG-16" value="&lt;div&gt;&lt;span style=&quot;line-height: 1.2&quot;&gt;Czy temperatura mieści się w przedziale?&lt;/span&gt;&lt;/div&gt;" style="rhombus;whiteSpace=wrap;html=1;shadow=0;fontFamily=Helvetica;fontSize=12;align=center;strokeWidth=1;spacing=6;spacingTop=-4;fontStyle=1" vertex="1" parent="WIyWlLk6GJQsqaUBKTNV-1">
          <mxGeometry x="365" y="280" width="135" height="120" as="geometry" />
        </mxCell>
        <mxCell id="WKIlZzLHvsBtDXZ9d_bG-19" value="TAK" style="edgeStyle=orthogonalEdgeStyle;rounded=0;html=1;jettySize=auto;orthogonalLoop=1;fontSize=11;endArrow=block;endFill=0;endSize=8;strokeWidth=1;shadow=0;labelBackgroundColor=none;exitX=1;exitY=0.5;exitDx=0;exitDy=0;entryX=0.5;entryY=0;entryDx=0;entryDy=0;" edge="1" parent="WIyWlLk6GJQsqaUBKTNV-1" source="WKIlZzLHvsBtDXZ9d_bG-25">
          <mxGeometry x="-0.3333" y="5" relative="1" as="geometry">
            <mxPoint as="offset" />
            <mxPoint x="660" y="560" as="sourcePoint" />
            <mxPoint x="640" y="535" as="targetPoint" />
            <Array as="points">
              <mxPoint x="640" y="495" />
            </Array>
          </mxGeometry>
        </mxCell>
        <mxCell id="WKIlZzLHvsBtDXZ9d_bG-21" value="TAK" style="edgeStyle=orthogonalEdgeStyle;rounded=0;html=1;jettySize=auto;orthogonalLoop=1;fontSize=11;endArrow=block;endFill=0;endSize=8;strokeWidth=1;shadow=0;labelBackgroundColor=none;exitX=1;exitY=0.5;exitDx=0;exitDy=0;entryX=0.5;entryY=0;entryDx=0;entryDy=0;" edge="1" parent="WIyWlLk6GJQsqaUBKTNV-1" source="WKIlZzLHvsBtDXZ9d_bG-16" target="WKIlZzLHvsBtDXZ9d_bG-24">
          <mxGeometry x="-0.4" y="10" relative="1" as="geometry">
            <mxPoint as="offset" />
            <mxPoint x="534" y="310" as="sourcePoint" />
            <mxPoint x="620" y="400" as="targetPoint" />
            <Array as="points">
              <mxPoint x="540" y="340" />
            </Array>
          </mxGeometry>
        </mxCell>
        <mxCell id="WKIlZzLHvsBtDXZ9d_bG-22" value="" style="edgeStyle=orthogonalEdgeStyle;rounded=0;html=1;jettySize=auto;orthogonalLoop=1;fontSize=11;endArrow=block;endFill=0;endSize=8;strokeWidth=1;shadow=0;labelBackgroundColor=none;exitX=0.5;exitY=1;exitDx=0;exitDy=0;entryX=0.5;entryY=0;entryDx=0;entryDy=0;" edge="1" parent="WIyWlLk6GJQsqaUBKTNV-1" source="WKIlZzLHvsBtDXZ9d_bG-14" target="WKIlZzLHvsBtDXZ9d_bG-16">
          <mxGeometry y="10" relative="1" as="geometry">
            <mxPoint as="offset" />
            <mxPoint x="504" y="340" as="sourcePoint" />
            <mxPoint x="604" y="340" as="targetPoint" />
            <Array as="points">
              <mxPoint x="433" y="250" />
              <mxPoint x="433" y="280" />
            </Array>
          </mxGeometry>
        </mxCell>
        <mxCell id="WKIlZzLHvsBtDXZ9d_bG-24" value="Sprawdzenie maseczki ochronnej" style="rounded=1;whiteSpace=wrap;html=1;fontSize=12;glass=0;strokeWidth=1;shadow=0;" vertex="1" parent="WIyWlLk6GJQsqaUBKTNV-1">
          <mxGeometry x="480" y="370" width="120" height="40" as="geometry" />
        </mxCell>
        <mxCell id="WKIlZzLHvsBtDXZ9d_bG-25" value="Czy maseczka jest założona poprawnie?" style="rhombus;whiteSpace=wrap;html=1;shadow=0;fontFamily=Helvetica;fontSize=11;align=center;strokeWidth=1;spacing=6;spacingTop=-4;fontStyle=1" vertex="1" parent="WIyWlLk6GJQsqaUBKTNV-1">
          <mxGeometry x="475" y="435" width="130" height="120" as="geometry" />
        </mxCell>
        <mxCell id="WKIlZzLHvsBtDXZ9d_bG-26" value="" style="edgeStyle=orthogonalEdgeStyle;rounded=0;html=1;jettySize=auto;orthogonalLoop=1;fontSize=11;endArrow=block;endFill=0;endSize=8;strokeWidth=1;shadow=0;labelBackgroundColor=none;entryX=0.5;entryY=0;entryDx=0;entryDy=0;exitX=0.5;exitY=1;exitDx=0;exitDy=0;" edge="1" parent="WIyWlLk6GJQsqaUBKTNV-1" source="WKIlZzLHvsBtDXZ9d_bG-24" target="WKIlZzLHvsBtDXZ9d_bG-25">
          <mxGeometry x="0.9922" y="90" relative="1" as="geometry">
            <mxPoint as="offset" />
            <mxPoint x="446" y="440" as="sourcePoint" />
            <mxPoint x="446" y="500" as="targetPoint" />
            <Array as="points">
              <mxPoint x="540" y="410" />
              <mxPoint x="540" y="470" />
            </Array>
          </mxGeometry>
        </mxCell>
        <mxCell id="WKIlZzLHvsBtDXZ9d_bG-30" value="TAK" style="edgeStyle=orthogonalEdgeStyle;rounded=0;html=1;jettySize=auto;orthogonalLoop=1;fontSize=11;endArrow=block;endFill=0;endSize=8;strokeWidth=1;shadow=0;labelBackgroundColor=none;exitX=1;exitY=0.5;exitDx=0;exitDy=0;entryX=0.5;entryY=0;entryDx=0;entryDy=0;" edge="1" parent="WIyWlLk6GJQsqaUBKTNV-1" source="WKIlZzLHvsBtDXZ9d_bG-8" target="WKIlZzLHvsBtDXZ9d_bG-31">
          <mxGeometry x="-0.6364" y="5" relative="1" as="geometry">
            <mxPoint as="offset" />
            <mxPoint x="695" y="740" as="sourcePoint" />
            <mxPoint x="710" y="810" as="targetPoint" />
            <Array as="points">
              <mxPoint x="713" y="745" />
            </Array>
          </mxGeometry>
        </mxCell>
        <mxCell id="WKIlZzLHvsBtDXZ9d_bG-31" value="STOP" style="rounded=1;whiteSpace=wrap;html=1;fontSize=12;glass=0;strokeWidth=1;shadow=0;fillColor=#f8cecc;strokeColor=#b85450;fontStyle=1" vertex="1" parent="WIyWlLk6GJQsqaUBKTNV-1">
          <mxGeometry x="680" y="810" width="65" height="30" as="geometry" />
        </mxCell>
        <mxCell id="WKIlZzLHvsBtDXZ9d_bG-34" value="NIE" style="edgeStyle=orthogonalEdgeStyle;rounded=0;html=1;jettySize=auto;orthogonalLoop=1;fontSize=11;endArrow=none;endFill=0;endSize=8;strokeWidth=1;shadow=0;labelBackgroundColor=none;exitX=0;exitY=0.5;exitDx=0;exitDy=0;" edge="1" parent="WIyWlLk6GJQsqaUBKTNV-1" source="WKIlZzLHvsBtDXZ9d_bG-8">
          <mxGeometry x="-0.9602" y="-5" relative="1" as="geometry">
            <mxPoint as="offset" />
            <mxPoint x="580" y="740" as="sourcePoint" />
            <mxPoint x="220" y="180" as="targetPoint" />
            <Array as="points">
              <mxPoint x="220" y="745" />
              <mxPoint x="220" y="180" />
            </Array>
          </mxGeometry>
        </mxCell>
        <mxCell id="WKIlZzLHvsBtDXZ9d_bG-35" value="Warunki spełnionie.&lt;br&gt;Proszę przejść." style="rounded=1;whiteSpace=wrap;html=1;fontSize=12;glass=0;strokeWidth=1;shadow=0;" vertex="1" parent="WIyWlLk6GJQsqaUBKTNV-1">
          <mxGeometry x="580" y="535" width="120" height="40" as="geometry" />
        </mxCell>
        <mxCell id="WKIlZzLHvsBtDXZ9d_bG-37" value="" style="edgeStyle=orthogonalEdgeStyle;rounded=0;orthogonalLoop=1;jettySize=auto;html=1;labelBackgroundColor=none;fontSize=10;align=center;exitX=0.5;exitY=1;exitDx=0;exitDy=0;strokeWidth=1;" edge="1" parent="WIyWlLk6GJQsqaUBKTNV-1" source="WKIlZzLHvsBtDXZ9d_bG-36" target="WKIlZzLHvsBtDXZ9d_bG-8">
          <mxGeometry relative="1" as="geometry">
            <mxPoint x="640" y="650" as="sourcePoint" />
            <Array as="points">
              <mxPoint x="637" y="650" />
            </Array>
          </mxGeometry>
        </mxCell>
        <mxCell id="WKIlZzLHvsBtDXZ9d_bG-36" value="&lt;font style=&quot;font-size: 10px&quot;&gt;Czekaj 10 sekund&lt;br&gt;na przejście użytkownika&lt;/font&gt;" style="rounded=1;whiteSpace=wrap;html=1;fontSize=12;glass=0;strokeWidth=1;shadow=0;" vertex="1" parent="WIyWlLk6GJQsqaUBKTNV-1">
          <mxGeometry x="580" y="610" width="120" height="40" as="geometry" />
        </mxCell>
        <mxCell id="WKIlZzLHvsBtDXZ9d_bG-38" value="" style="edgeStyle=orthogonalEdgeStyle;rounded=0;orthogonalLoop=1;jettySize=auto;html=1;labelBackgroundColor=none;fontSize=10;align=center;exitX=0.5;exitY=1;exitDx=0;exitDy=0;entryX=0.5;entryY=0;entryDx=0;entryDy=0;strokeWidth=1;" edge="1" parent="WIyWlLk6GJQsqaUBKTNV-1" source="WKIlZzLHvsBtDXZ9d_bG-35" target="WKIlZzLHvsBtDXZ9d_bG-36">
          <mxGeometry relative="1" as="geometry">
            <mxPoint x="639.94" y="590" as="sourcePoint" />
            <mxPoint x="640" y="600" as="targetPoint" />
            <Array as="points" />
          </mxGeometry>
        </mxCell>
        <mxCell id="WKIlZzLHvsBtDXZ9d_bG-39" value="NIE" style="edgeStyle=orthogonalEdgeStyle;rounded=0;html=1;jettySize=auto;orthogonalLoop=1;fontSize=11;endArrow=none;endFill=0;endSize=8;strokeWidth=1;shadow=0;labelBackgroundColor=none;exitX=0;exitY=0.5;exitDx=0;exitDy=0;" edge="1" parent="WIyWlLk6GJQsqaUBKTNV-1" source="WKIlZzLHvsBtDXZ9d_bG-25">
          <mxGeometry x="-0.9091" y="-5" relative="1" as="geometry">
            <mxPoint as="offset" />
            <mxPoint x="615" y="735" as="sourcePoint" />
            <mxPoint x="220" y="495" as="targetPoint" />
            <Array as="points">
              <mxPoint x="430" y="495" />
              <mxPoint x="430" y="495" />
            </Array>
          </mxGeometry>
        </mxCell>
        <mxCell id="WKIlZzLHvsBtDXZ9d_bG-40" value="NIE" style="edgeStyle=orthogonalEdgeStyle;rounded=0;html=1;jettySize=auto;orthogonalLoop=1;fontSize=11;endArrow=none;endFill=0;endSize=8;strokeWidth=1;shadow=0;labelBackgroundColor=none;exitX=0;exitY=0.5;exitDx=0;exitDy=0;" edge="1" parent="WIyWlLk6GJQsqaUBKTNV-1" source="WKIlZzLHvsBtDXZ9d_bG-16">
          <mxGeometry x="-0.8" y="-5" relative="1" as="geometry">
            <mxPoint as="offset" />
            <mxPoint x="340" y="330" as="sourcePoint" />
            <mxPoint x="220" y="340" as="targetPoint" />
            <Array as="points">
              <mxPoint x="320" y="340" />
              <mxPoint x="320" y="340" />
            </Array>
          </mxGeometry>
        </mxCell>
      </root>
    </mxGraphModel>
  </diagram>
</mxfile>
